<svg width="20" height="21" viewBox="0 0 20 21" fill="none" xmlns="http://www.w3.org/2000/svg">
<path fill-rule="evenodd" clip-rule="evenodd" d="M9.71493 4.70179C6.80109 0.764867 0.345703 2.61871 0.345703 7.80025C0.345703 11.6741 3.86263 16.4972 9.01032 19.0787C9.49955 19.3249 10.0888 19.3218 10.578 19.071C15.7011 16.4464 19.1119 11.6864 19.1119 7.84948C19.1119 2.66487 12.6688 0.707944 9.71493 4.70179Z" fill="#EE6E62"/>
<path d="M6.11873 2.61622C6.55134 3.62545 6.97866 4.66315 7.34545 5.57464C7.86886 4.9969 8.41268 4.43063 8.97466 3.88638C9.19803 4.08649 9.40951 4.3107 9.60628 4.5597C8.30565 5.82056 7.09432 7.21324 6.00347 8.60424C4.61036 10.3807 3.42347 12.1416 2.50747 13.5979C2.30832 13.3197 2.12151 13.039 1.94763 12.7566C2.31015 12.1881 2.71038 11.5795 3.14496 10.9461C2.59821 10.9735 1.90925 11.0124 1.24511 11.0587C1.18726 11.0627 1.12975 11.0668 1.07269 11.0709C0.945387 10.7698 0.833898 10.4691 0.73895 10.1701C0.884833 10.1589 1.03283 10.1482 1.18087 10.1379C2.09823 10.0739 3.06037 10.024 3.6402 9.99852C3.69388 9.99616 3.74582 10.0031 3.79447 10.0178C4.00251 9.72639 4.21706 9.43146 4.43781 9.13439C3.67766 8.99034 2.68287 8.92315 1.72349 8.90339C1.26664 8.89397 0.826678 8.89542 0.435479 8.90327C0.386075 8.59172 0.356711 8.28408 0.348267 7.98183C0.7715 7.97243 1.24905 7.97034 1.7425 7.9805C2.87659 8.00386 4.14845 8.0925 5.05097 8.32511C5.12574 8.22836 5.20112 8.13151 5.27711 8.03461C5.38123 7.90184 5.48655 7.7689 5.59303 7.63592C4.52679 6.98043 3.28979 6.56173 2.27586 6.30377C1.73005 6.16491 1.25632 6.07446 0.919976 6.01886C0.812933 6.00116 0.719961 5.98702 0.643185 5.97599C0.751056 5.66589 0.885988 5.37486 1.0442 5.10381C1.05289 5.10523 1.06167 5.10668 1.07053 5.10814C1.42751 5.16716 1.92752 5.26267 2.50345 5.40919C3.5913 5.68596 4.97712 6.15141 6.18163 6.91524C6.33928 6.72605 6.49921 6.53722 6.66135 6.34909C6.21774 5.23723 5.66074 3.87903 5.10803 2.6033C5.44344 2.57575 5.7821 2.57962 6.11873 2.61622Z" fill="#BF4A40"/>
<path d="M4.10086 15.4946C3.87928 15.2672 3.66603 15.036 3.46152 14.8016C5.5056 11.9491 7.95654 9.02304 10.0609 6.6393C11.4161 5.10414 12.6314 3.7896 13.5081 2.85869C13.6011 2.75989 13.6903 2.66541 13.7755 2.57544C14.1695 2.56787 14.5629 2.60452 14.9474 2.68313C14.7363 2.90361 14.4779 3.17524 14.1801 3.49153C13.3086 4.41691 12.1002 5.72401 10.7529 7.25019C8.61494 9.67201 6.13703 12.6347 4.10086 15.4946Z" fill="#BF4A40"/>
<path fill-rule="evenodd" clip-rule="evenodd" d="M6.21474 17.3483C5.96687 17.1626 5.72521 16.9718 5.49008 16.7765L16.3343 3.17169C16.6091 3.31351 16.8719 3.47955 17.1186 3.6687L16.3696 4.60836L18.031 4.57245C18.244 4.84576 18.4313 5.14479 18.5875 5.4681C18.5496 5.47911 18.5097 5.4854 18.4684 5.48629L15.6207 5.54784L15.0352 6.28245L18.9938 6.671C19.0558 6.9699 19.0945 7.28302 19.1072 7.60965L14.3495 7.14266L14.1448 7.39949C14.1595 7.41826 14.173 7.43842 14.185 7.45991C14.3457 7.74775 14.5754 8.20767 14.8438 8.79612L18.9505 9.34868C18.8613 9.77689 18.7358 10.2112 18.5762 10.6478C17.8654 11.4083 17.1391 12.1032 16.4105 12.7373C16.5396 13.1115 16.6664 13.495 16.7886 13.8847C16.5694 14.1795 16.3362 14.471 16.0898 14.7581C15.2479 11.9108 14.1009 9.29879 13.5231 8.17947L12.2216 9.81224L12.3382 10.0661C13.0871 11.6955 13.952 13.5776 14.4297 16.4416C14.1634 16.6778 13.8875 16.9083 13.6027 17.1324C13.1832 14.1858 12.3422 12.2878 11.5772 10.6208L9.91603 12.7048C9.93144 12.728 9.94496 12.7529 9.95628 12.7795C10.7664 14.6787 11.3405 16.8054 11.6697 18.4646C11.393 18.6307 11.1103 18.7906 10.822 18.9437C10.5356 17.4094 10.0121 15.3743 9.26486 13.5217L6.21474 17.3483ZM17.8004 10.1253C17.2332 10.7258 16.6561 11.2837 16.0762 11.8015C15.806 11.0703 15.5338 10.3894 15.2783 9.78597L17.8004 10.1253Z" fill="#BF4A40"/>
<path fill-rule="evenodd" clip-rule="evenodd" d="M10.9472 3.46527C11.1112 3.66047 11.0858 3.9516 10.8906 4.11553C10.3838 4.5411 9.92999 5.10296 9.57073 5.81718C9.45619 6.04489 9.17873 6.13664 8.95102 6.02209C8.7233 5.90755 8.63156 5.6301 8.7461 5.40238C9.15915 4.58121 9.68991 3.91846 10.297 3.40865C10.4922 3.24472 10.7833 3.27007 10.9472 3.46527Z" fill="#1A444D"/>
</svg>
