<svg width="20" height="21" viewBox="0 0 20 21" fill="none" xmlns="http://www.w3.org/2000/svg">
<path fill-rule="evenodd" clip-rule="evenodd" d="M4.69914 17.1769C9.25641 11.2292 13.6027 4.59937 13.6027 4.59937L15.3743 5.84325C15.3743 5.84325 10.1525 12.9199 5.87919 18.0268C4.9326 19.1594 3.92764 18.1842 4.69914 17.1769Z" fill="#DDDFD4"/>
<path fill-rule="evenodd" clip-rule="evenodd" d="M13.6024 4.599C13.6024 4.599 13.1355 5.3097 12.3573 6.46301C12.4266 6.52623 12.4904 6.59433 12.5683 6.65026C13.1337 7.06002 13.8134 7.19377 14.4511 7.08313C15.0305 6.3098 15.374 5.84349 15.374 5.84349L13.6024 4.599Z" fill="#ABB398"/>
<path fill-rule="evenodd" clip-rule="evenodd" d="M9.66484 10.3336L8.37354 12.1958C8.37354 12.1958 9.4709 12.2797 9.97004 12.932L10.7926 11.8888L9.66484 10.3336Z" fill="#ABB398"/>
<path fill-rule="evenodd" clip-rule="evenodd" d="M16.9492 5.83689C16.1437 6.95007 14.5885 7.19933 13.4753 6.39439C12.3621 5.58884 12.1129 4.03368 12.9178 2.92051C13.7234 1.80733 15.2785 1.55807 16.3917 2.36301C17.5049 3.16795 17.7541 4.72372 16.9492 5.83689Z" fill="#EF6E60"/>
<path fill-rule="evenodd" clip-rule="evenodd" d="M13.3079 2.50269C11.6761 3.91802 12.4896 6.59669 14.6545 6.83988C13.4331 5.86957 12.92 4.05481 13.3079 2.50269Z" fill="#BF4A40"/>
<path fill-rule="evenodd" clip-rule="evenodd" d="M16.3908 3.20465C16.5612 3.09401 16.789 3.14243 16.8996 3.31279L16.5911 3.51312C16.8996 3.31279 16.8997 3.31293 16.8998 3.31307L16.9 3.31336L16.9004 3.31402L16.9014 3.31559L16.904 3.31974L16.9116 3.33201C16.9177 3.34193 16.9256 3.35533 16.935 3.37196C16.9538 3.40516 16.9786 3.45159 17.0057 3.50931C17.0596 3.62402 17.1245 3.78736 17.1684 3.9831C17.2564 4.3759 17.2628 4.92102 16.9006 5.44616C16.7852 5.61337 16.5562 5.65541 16.389 5.54007C16.2217 5.42472 16.1797 5.19565 16.295 5.02844C16.5061 4.7225 16.5092 4.40552 16.4505 4.14401C16.4211 4.01259 16.3768 3.90071 16.3399 3.822C16.3215 3.78301 16.3055 3.75317 16.2948 3.73429C16.2895 3.72487 16.2855 3.71827 16.2834 3.7147L16.2816 3.71178C16.1723 3.5416 16.221 3.31493 16.3908 3.20465Z" fill="#FEF7F6"/>
<path fill-rule="evenodd" clip-rule="evenodd" d="M15.6103 17.2236C11.3418 11.065 8.14576 5.60974 8.14576 5.60974L6.31641 6.76851C6.31641 6.76851 10.366 12.7113 14.3907 18.017C15.2826 19.1922 16.3326 18.2669 15.6103 17.2236Z" fill="#DDDFD4"/>
<path fill-rule="evenodd" clip-rule="evenodd" d="M9.98152 8.38487C10.1567 8.28206 10.3821 8.34075 10.4849 8.51595L11.7197 10.6201C11.8225 10.7953 11.7638 11.0207 11.5886 11.1235C11.4134 11.2263 11.188 11.1676 11.0852 10.9924L9.85045 8.88826C9.74764 8.71306 9.80632 8.48769 9.98152 8.38487Z" fill="#FEF7F6"/>
<path fill-rule="evenodd" clip-rule="evenodd" d="M8.95561 10.4667C9.11787 10.3445 9.34849 10.377 9.47071 10.5392L11.1858 12.816C11.308 12.9783 11.2755 13.2089 11.1133 13.3311C10.951 13.4534 10.7204 13.4209 10.5982 13.2587L8.88313 10.9818C8.76091 10.8196 8.79336 10.589 8.95561 10.4667Z" fill="#939D7B"/>
<path fill-rule="evenodd" clip-rule="evenodd" d="M8.14564 5.61011L6.31628 6.76827C6.31628 6.76827 6.82332 7.52883 7.60759 8.687C7.61732 8.68274 7.62705 8.68092 7.63677 8.67666C8.37849 8.32587 8.82473 7.61395 8.88431 6.85035C8.41618 6.07094 8.14564 5.61011 8.14564 5.61011Z" fill="#ABB398"/>
<path fill-rule="evenodd" clip-rule="evenodd" d="M8.99821 4.26649C9.63717 5.61798 9.059 7.23151 7.7069 7.86987C6.3554 8.50884 4.74187 7.93006 4.10352 6.57917C3.46455 5.22706 4.04333 3.61415 5.39482 2.97518C6.74632 2.33682 8.35985 2.91438 8.99821 4.26649Z" fill="#EF6E60"/>
<path fill-rule="evenodd" clip-rule="evenodd" d="M3.91003 5.98767C4.40309 8.28576 7.38331 8.915 8.75001 6.97986C6.68233 7.62187 4.79158 7.13428 3.91003 5.98767Z" fill="#BF4A40"/>
<path fill-rule="evenodd" clip-rule="evenodd" d="M6.62264 3.75529C6.62214 3.75533 6.62165 3.75536 6.62115 3.7554C6.41931 3.76919 6.24405 3.61727 6.22927 3.41527C6.21445 3.21267 6.36667 3.03642 6.56927 3.0216L6.5961 3.38843C6.56927 3.0216 6.56943 3.02159 6.5696 3.02157L6.56995 3.02155L6.57074 3.02149L6.57265 3.02136L6.57776 3.02104L6.59297 3.02027C6.60527 3.01972 6.62186 3.01918 6.64228 3.01893C6.68306 3.01844 6.73949 3.01915 6.80781 3.02353C6.94365 3.03224 7.13093 3.05577 7.33771 3.11586C7.7526 3.23642 8.26637 3.51198 8.57149 4.12259C8.66229 4.3043 8.58859 4.52522 8.40687 4.61602C8.22516 4.70683 8.00424 4.63313 7.91344 4.45141C7.72732 4.07895 7.41791 3.90522 7.13244 3.82227C6.98902 3.7806 6.85682 3.76382 6.76073 3.75765C6.71307 3.7546 6.67542 3.75422 6.65111 3.75451C6.63899 3.75466 6.63028 3.75497 6.62542 3.75518L6.62115 3.7554L6.62111 3.7554C6.62089 3.75541 6.62093 3.75541 6.62123 3.75539L6.62189 3.75534L6.62236 3.75531L6.62264 3.75529Z" fill="#FEF7F6"/>
</svg>
